<?xml version="1.0" encoding="UTF-8"?>
<svg width="180px" height="30px" viewBox="0 0 180 30" version="1.1" xmlns="http://www.w3.org/2000/svg" xmlns:xlink="http://www.w3.org/1999/xlink">
    <!-- Generator: Sketch 46.2 (44496) - http://www.bohemiancoding.com/sketch -->
    <title>Kandio Logo header</title>
    <desc>Created with Sketch.</desc>
    <defs></defs>
    <g id="Symbols" stroke="none" stroke-width="1" fill="none" fill-rule="evenodd">
        <g id="Kandio-logo-header" fill-rule="nonzero" fill="#FFFFFF">
            <g id="Kandio">
                <path d="M29.1421518,29.5179234 L18.7739148,29.5179234 L11.9234725,18.7639061 L8.66488377,22.3609394 L8.66488377,29.5550062 L0,29.5550062 L0,0.296662546 L8.66488377,0.296662546 L8.66488377,12.0148331 L18.4406501,0.296662546 L28.4385929,0.296662546 L17.81115,12.1631644 L29.1421518,29.5179234 Z M55.7663032,2.85537701 C58.0621271,4.70951792 59.2100391,7.34239802 59.2100391,10.6798517 L59.2100391,29.5179234 L48.656655,29.5179234 L48.656655,26.328801 C47.767949,27.5154512 46.620037,28.4054388 45.1758897,29.0358467 C43.7317424,29.6662546 42.0654186,30 40.1769183,30 C37.1034767,30 34.7335939,29.184178 32.9932113,27.5154512 C31.2528286,25.8467244 30.3641226,23.6588381 30.3641226,20.8776267 C30.3641226,18.0593325 31.3268875,15.908529 33.2153878,14.3881335 C35.1038881,12.8677379 37.8810944,12.0889988 41.5470068,12.0519159 L48.656655,12.0519159 L48.656655,11.9406675 C48.656655,10.7169345 48.212302,9.78986403 47.3606254,9.1223733 C46.5089488,8.45488257 45.2499486,8.12113721 43.6206542,8.12113721 C42.4357128,8.12113721 41.1026538,8.3065513 39.5474182,8.64029666 C37.9921827,9.01112485 36.4369471,9.5302843 34.8817116,10.197775 L32.2155935,3.0407911 C37.1034767,1.03831891 41.7691833,0.0370828183 46.175684,0.0370828183 C50.2859494,0.0370828183 53.4704793,1.00123609 55.7663032,2.85537701 Z M46.7311253,22.1755253 C47.6198313,21.6563659 48.2493314,20.9147095 48.656655,19.9876391 L48.656655,17.354759 L43.7687719,17.354759 C41.5840362,17.354759 40.5101831,18.2447466 40.5101831,20.0618047 C40.5101831,20.9888752 40.8064184,21.6934487 41.3618597,22.2126082 C41.917301,22.6946848 42.7319482,22.9542645 43.7687719,22.9542645 C44.842625,22.9542645 45.8424193,22.6946848 46.7311253,22.1755253 Z M90.3517795,1.4091471 C91.9440444,2.29913473 93.1660152,3.59703337 94.0176918,5.2657602 C94.9063979,6.93448702 95.3137215,8.86279357 95.3137215,11.0877627 L95.3137215,29.5179234 L84.5751903,29.5179234 L84.5751903,14.2027194 C84.5751903,12.7935723 84.2048961,11.6440049 83.4272783,10.7911001 C82.6496606,9.9381953 81.6498663,9.49320148 80.4278955,9.49320148 C78.9837482,9.5302843 77.7988068,10.0494438 76.9471302,11.0877627 C76.0954536,12.1260816 75.6511006,13.461063 75.6511006,15.1297899 L75.6511006,29.4808405 L64.9125694,29.4808405 L64.9125694,0.44499382 L75.68813,0.44499382 L75.68813,4.93201483 C76.7249537,3.33745365 78.0209833,2.11372064 79.5391895,1.26081582 C81.0573956,0.407911001 82.8718371,0 84.9084551,0 C86.945073,0.0370828183 88.7965439,0.519159456 90.3517795,1.4091471 Z M120.308578,1.8170581 C122.715491,3.0407911 124.566962,4.78368356 125.900021,7.00865266 C127.23308,9.23362176 127.86258,11.829419 127.86258,14.7218789 C127.86258,17.6143387 127.19605,20.210136 125.825962,22.4721879 C124.492903,24.7342398 122.604402,26.4400494 120.160461,27.6637824 C117.716519,28.8875155 114.902283,29.4808405 111.717754,29.4808405 L100.534869,29.4808405 L100.534869,0 L112.013989,0 C115.161489,0 117.938696,0.593325093 120.308578,1.8170581 Z M116.753754,19.2088999 C117.67949,18.1334981 118.123843,16.7243511 118.123843,14.9443758 C118.123843,13.1644005 117.64246,11.7552534 116.642666,10.6427689 C115.642872,9.5302843 114.383872,9.01112485 112.791607,9.01112485 L109.792224,9.01112485 L109.792224,20.8034611 L113.087842,20.8034611 C114.606048,20.8405439 115.828019,20.2843016 116.753754,19.2088999 Z M132.787492,0.482076638 L143.563053,0.482076638 L143.563053,29.5179234 L132.787492,29.5179234 L132.787492,0.482076638 Z M172.37194,1.85414091 C174.778852,3.07787392 176.667352,4.82076638 178.000411,7.04573548 C179.33347,9.27070457 180,11.9035847 180,14.907293 C180,17.8739184 179.33347,20.4697157 178.000411,22.7317676 C176.667352,24.9938195 174.778852,26.736712 172.37194,27.960445 C169.965028,29.184178 167.113763,29.8145859 163.892203,29.8145859 C160.670644,29.8145859 157.819379,29.184178 155.375437,27.960445 C152.931496,26.736712 151.042995,24.9938195 149.709936,22.7317676 C148.376877,20.4697157 147.710348,17.8739184 147.710348,14.907293 C147.710348,11.9035847 148.376877,9.30778739 149.709936,7.04573548 C151.042995,4.82076638 152.931496,3.07787392 155.375437,1.85414091 C157.819379,0.630407911 160.633614,0 163.892203,0 C167.150792,0 169.965028,0.630407911 172.37194,1.85414091 Z M160.30035,10.3090235 C159.337585,11.4956737 158.856202,13.053152 158.856202,14.9814586 C158.856202,16.946848 159.337585,18.5043263 160.30035,19.6909765 C161.263115,20.8776267 162.522115,21.4709518 164.151409,21.4709518 C165.706645,21.4709518 166.965645,20.8776267 167.92841,19.6909765 C168.891175,18.5043263 169.372557,16.946848 169.372557,14.9814586 C169.372557,13.053152 168.891175,11.4956737 167.92841,10.3090235 C166.965645,9.1223733 165.706645,8.52904821 164.151409,8.52904821 C162.522115,8.52904821 161.263115,9.1223733 160.30035,10.3090235 Z" id="KanDiod"></path>
            </g>
        </g>
    </g>
</svg>