<?xml version="1.0" encoding="UTF-8"?>
<svg width="108px" height="18px" viewBox="0 0 108 18" version="1.1" xmlns="http://www.w3.org/2000/svg" xmlns:xlink="http://www.w3.org/1999/xlink">
    <!-- Generator: Sketch 46.2 (44496) - http://www.bohemiancoding.com/sketch -->
    <title>Kandio logo mobile header</title>
    <desc>Created with Sketch.</desc>
    <defs></defs>
    <g id="Symbols" stroke="none" stroke-width="1" fill="none" fill-rule="evenodd" fill-opacity="0.247961957">
        <g id="Kandio-logo-mobile-header" fill-rule="nonzero" fill="#1B2C42">
            <g id="KanDiod">
                <path d="M17.4852911,17.710754 L11.2643489,17.710754 L7.15408352,11.2583436 L5.19893026,13.4165637 L5.19893026,17.7330037 L0,17.7330037 L0,0.177997528 L5.19893026,0.177997528 L5.19893026,7.20889988 L11.06439,0.177997528 L17.0631557,0.177997528 L10.68669,7.29789864 L17.4852911,17.710754 Z M33.4597819,1.71322621 C34.8372763,2.82571075 35.5260235,4.40543881 35.5260235,6.407911 L35.5260235,17.710754 L29.193993,17.710754 L29.193993,15.7972806 C28.6607694,16.5092707 27.9720222,17.0432633 27.1055338,17.421508 C26.2390455,17.7997528 25.2392512,18 24.106151,18 C22.262086,18 20.8401563,17.5105068 19.7959268,16.5092707 C18.7516972,15.5080346 18.2184736,14.1953028 18.2184736,12.526576 C18.2184736,10.8355995 18.7961325,9.54511743 19.9292327,8.6328801 C21.0623329,7.72064277 22.7286567,7.25339926 24.9282041,7.23114957 L29.193993,7.23114957 L29.193993,7.16440049 C29.193993,6.43016069 28.9273812,5.87391842 28.4163752,5.47342398 C27.9053693,5.07292954 27.1499691,4.87268232 26.1723925,4.87268232 C25.4614277,4.87268232 24.6615923,4.98393078 23.7284509,5.184178 C22.7953096,5.40667491 21.8621683,5.71817058 20.9290269,6.11866502 L19.3293561,1.82447466 C22.262086,0.622991347 25.06151,0.022249691 27.7054104,0.022249691 C30.1715696,0.022249691 32.0822876,0.600741656 33.4597819,1.71322621 Z M28.0386752,13.3053152 C28.5718988,12.9938195 28.9495988,12.5488257 29.193993,11.9925834 L29.193993,10.4128554 L26.2612631,10.4128554 C24.9504217,10.4128554 24.3061099,10.946848 24.3061099,12.0370828 C24.3061099,12.5933251 24.4838511,13.0160692 24.8171158,13.3275649 C25.1503806,13.6168109 25.6391689,13.7725587 26.2612631,13.7725587 C26.905575,13.7725587 27.5054516,13.6168109 28.0386752,13.3053152 Z M54.2110677,0.845488257 C55.1664267,1.37948084 55.8996091,2.15822002 56.4106151,3.15945612 C56.9438387,4.16069221 57.1882329,5.31767614 57.1882329,6.6526576 L57.1882329,17.710754 L50.7451142,17.710754 L50.7451142,8.52163164 C50.7451142,7.67614339 50.5229377,6.98640297 50.056367,6.47466007 C49.5897963,5.96291718 48.9899198,5.69592089 48.2567373,5.69592089 C47.3902489,5.71817058 46.6792841,6.02966625 46.1682781,6.6526576 C45.6572722,7.27564895 45.3906604,8.07663782 45.3906604,9.07787392 L45.3906604,17.6885043 L38.9475417,17.6885043 L38.9475417,0.266996292 L45.412878,0.266996292 L45.412878,2.9592089 C46.0349722,2.00247219 46.81259,1.26823239 47.7235137,0.756489493 C48.6344374,0.244746601 49.7231022,0 50.945073,0 C52.1670438,0.022249691 53.2779264,0.311495674 54.2110677,0.845488257 Z M72.1851471,1.09023486 C73.6292944,1.82447466 74.7401769,2.87021014 75.5400123,4.20519159 C76.3398478,5.54017305 76.7175478,7.09765142 76.7175478,8.83312732 C76.7175478,10.5686032 76.3176301,12.1260816 75.495577,13.4833127 C74.6957416,14.8405439 73.5626414,15.8640297 72.0962765,16.5982695 C70.6299115,17.3325093 68.9413701,17.6885043 67.0306521,17.6885043 L60.3209216,17.6885043 L60.3209216,0 L67.2083933,0 C69.0968936,0 70.7632174,0.355995056 72.1851471,1.09023486 Z M70.0522526,11.5253399 C70.6076939,10.8800989 70.8743057,10.0346106 70.8743057,8.96662546 C70.8743057,7.8986403 70.5854762,7.05315204 69.9855997,6.38566131 C69.3857231,5.71817058 68.630323,5.40667491 67.674964,5.40667491 L65.8753343,5.40667491 L65.8753343,12.4820766 L67.8527052,12.4820766 C68.7636289,12.5043263 69.4968114,12.170581 70.0522526,11.5253399 Z M79.6724954,0.289245983 L86.1378317,0.289245983 L86.1378317,17.710754 L79.6724954,17.710754 L79.6724954,0.289245983 Z M103.423164,1.11248455 C104.867311,1.84672435 106.000411,2.89245983 106.800247,4.22744129 C107.600082,5.56242274 108,7.1421508 108,8.94437577 C108,10.7243511 107.600082,12.2818294 106.800247,13.6390606 C106.000411,14.9962917 104.867311,16.0420272 103.423164,16.776267 C101.979017,17.5105068 100.268258,17.8887515 98.335322,17.8887515 C96.4023863,17.8887515 94.6916272,17.5105068 93.2252623,16.776267 C91.7588973,16.0420272 90.6257972,14.9962917 89.8259617,13.6390606 C89.0261263,12.2818294 88.6262086,10.7243511 88.6262086,8.94437577 C88.6262086,7.1421508 89.0261263,5.58467244 89.8259617,4.22744129 C90.6257972,2.89245983 91.7588973,1.84672435 93.2252623,1.11248455 C94.6916272,0.378244747 96.3801687,0 98.335322,0 C100.290475,0 101.979017,0.378244747 103.423164,1.11248455 Z M96.1802098,6.18541409 C95.6025509,6.8974042 95.3137215,7.83189122 95.3137215,8.98887515 C95.3137215,10.1681088 95.6025509,11.1025958 96.1802098,11.8145859 C96.7578688,12.526576 97.5132689,12.8825711 98.4908455,12.8825711 C99.4239868,12.8825711 100.179387,12.526576 100.757046,11.8145859 C101.334705,11.1025958 101.623534,10.1681088 101.623534,8.98887515 C101.623534,7.83189122 101.334705,6.8974042 100.757046,6.18541409 C100.179387,5.47342398 99.4239868,5.11742892 98.4908455,5.11742892 C97.5132689,5.11742892 96.7578688,5.47342398 96.1802098,6.18541409 Z"></path>
            </g>
        </g>
    </g>
</svg>