<?xml version="1.0" encoding="UTF-8"?>
<svg width="36px" height="36px" viewBox="0 0 36 36" version="1.1" xmlns="http://www.w3.org/2000/svg" xmlns:xlink="http://www.w3.org/1999/xlink">
    <!-- Generator: Sketch 46.2 (44496) - http://www.bohemiancoding.com/sketch -->
    <title>Linked in icon</title>
    <desc>Created with Sketch.</desc>
    <defs></defs>
    <g id="Symbols" stroke="none" stroke-width="1" fill="none" fill-rule="evenodd">
        <g id="Linked-in">
            <circle id="Oval" fill="#0B7FE5" cx="18" cy="18" r="18"></circle>
            <path d="M13,25 L13,14 L10,14 L10,25 L13,25 Z M11.9661017,13 C12.5536753,13 13.0395461,12.8079115 13.4237288,12.4237288 C13.8079115,12.0395461 14,11.5762739 14,11.0338983 C14,10.4463247 13.8192108,9.9604539 13.4576271,9.57627119 C13.0960434,9.19208847 12.6214719,9 12.0338983,9 C11.4463247,9 10.9604539,9.19208847 10.5762712,9.57627119 C10.1920885,9.9604539 10,10.4463247 10,11.0338983 C10,11.5762739 10.1807892,12.0395461 10.5423729,12.4237288 C10.9039566,12.8079115 11.3785281,13 11.9661017,13 Z M27,25 L27,18.7142857 C27,17.1638018 26.6180594,15.9904802 25.8541667,15.1942857 C25.090274,14.3980913 24.0972283,14 22.875,14 C21.5654696,14 20.4742107,14.5866608 19.6011905,15.76 L19.6011905,14.2514286 L16,14.2514286 L16,25 L19.6011905,25 L19.6011905,18.9028571 C19.6011905,18.4838074 19.6448408,18.190477 19.7321429,18.0228571 C20.081351,17.1847577 20.692456,16.7657143 21.5654762,16.7657143 C22.7877045,16.7657143 23.3988095,17.5409446 23.3988095,19.0914286 L23.3988095,25 L27,25 Z" id="" fill="#FFFFFF"></path>
        </g>
    </g>
</svg>