<?xml version="1.0" encoding="UTF-8"?>
<svg width="14px" height="14px" viewBox="0 0 14 14" version="1.1" xmlns="http://www.w3.org/2000/svg" xmlns:xlink="http://www.w3.org/1999/xlink">
    <!-- Generator: Sketch 46.2 (44496) - http://www.bohemiancoding.com/sketch -->
    <title>Login icon</title>
    <desc>Created with Sketch.</desc>
    <defs></defs>
    <g id="Symbols" stroke="none" stroke-width="1" fill="none" fill-rule="evenodd">
        <g id="Login-icon" transform="translate(0.000000, -2.000000)" fill="#0B7FE5">
            <path d="M13.5,16 L0,16 C0,15.390622 0.0234372656,14.9218766 0.0703125,14.59375 C0.164062969,14.1249977 1.11327223,13.5507846 2.91796875,12.8710938 C3.19922016,12.7773433 3.53906051,12.660157 3.9375,12.5195312 C4.4765652,12.3320303 4.79296828,12.1855474 4.88671875,12.0800781 C4.98046922,11.9746088 5.02734375,11.6640651 5.02734375,11.1484375 L5.02734375,10.9375 C5.02734375,10.6562486 4.92187605,10.3808607 4.7109375,10.1113281 C4.49999895,9.84179553 4.33593809,9.3671909 4.21875,8.6875 C4.17187477,8.45312383 4.10156297,8.2656257 4.0078125,8.125 C3.91406203,7.9843743 3.82031297,7.70312711 3.7265625,7.28125 C3.65624965,7.07031145 3.65039033,6.87109469 3.70898437,6.68359375 C3.76757842,6.49609281 3.796875,6.37890648 3.796875,6.33203125 C3.74999977,5.95702937 3.70312523,5.57031449 3.65625,5.171875 C3.60937477,4.6328098 3.84374742,4.05273748 4.359375,3.43164062 C4.87500258,2.81054377 5.67186961,2.5 6.75,2.5 C7.82813039,2.5 8.62499742,2.81054377 9.140625,3.43164062 C9.65625258,4.05273748 9.89062523,4.6328098 9.84375,5.171875 C9.79687477,5.57031449 9.75000023,5.95702937 9.703125,6.33203125 C9.703125,6.37890648 9.73242158,6.49609281 9.79101562,6.68359375 C9.84960967,6.87109469 9.84375035,7.07031145 9.7734375,7.28125 C9.67968703,7.70312711 9.58593797,7.9843743 9.4921875,8.125 C9.39843703,8.2656257 9.32812523,8.45312383 9.28125,8.6875 C9.16406191,9.3671909 9.00000105,9.84179553 8.7890625,10.1113281 C8.57812395,10.3808607 8.47265625,10.6562486 8.47265625,10.9375 C8.47265625,11.6406285 8.54296805,12.039062 8.68359375,12.1328125 C8.73046898,12.1796877 9.30468199,12.4023418 10.40625,12.8007812 C10.4531252,12.8242189 10.5117184,12.8476561 10.5820312,12.8710938 C12.3867278,13.5507846 13.335937,14.1249977 13.4296875,14.59375 L13.5,16 Z"></path>
        </g>
    </g>
</svg>