<?xml version="1.0" encoding="UTF-8"?>
<svg width="13px" height="13px" viewBox="0 0 13 13" version="1.1" xmlns="http://www.w3.org/2000/svg" xmlns:xlink="http://www.w3.org/1999/xlink">
    <!-- Generator: sketchtool 46.2 (44496) - http://www.bohemiancoding.com/sketch -->
    <title>A0E03D7A-2617-42A7-BD04-F0B90027BD3F</title>
    <desc>Created with sketchtool.</desc>
    <defs></defs>
    <g id="Symbols" stroke="none" stroke-width="1" fill="none" fill-rule="evenodd">
        <g id="Login-white" fill="#FFFFFF">
            <path d="M13,13 L0,13 C0,12.4131915 0.0225692187,11.9618071 0.0677083333,11.6458333 C0.157986562,11.1944422 1.07203992,10.6414963 2.80989583,9.98697917 C3.08073052,9.89670094 3.40798419,9.78385484 3.79166667,9.6484375 C4.31076648,9.46788104 4.61545094,9.32682342 4.70572917,9.22526042 C4.7960074,9.12369741 4.84114583,8.82465526 4.84114583,8.328125 L4.84114583,8.125 C4.84114583,7.85416531 4.73958435,7.58897699 4.53645833,7.32942708 C4.33333232,7.06987717 4.17534779,6.61285049 4.0625,5.95833333 C4.01736089,5.73263776 3.94965323,5.55208401 3.859375,5.41666667 C3.76909677,5.28124932 3.6788199,5.0104187 3.58854167,4.60416667 C3.52083299,4.40104065 3.51519069,4.20920229 3.57161458,4.02864583 C3.62803848,3.84808938 3.65625,3.73524328 3.65625,3.69010417 C3.61111089,3.32899125 3.56597245,2.95659914 3.52083333,2.57291667 C3.47569422,2.05381685 3.70138641,1.49522868 4.19791667,0.897135417 C4.69444693,0.299042148 5.46180036,0 6.5,0 C7.53819964,0 8.30555307,0.299042148 8.80208333,0.897135417 C9.29861359,1.49522868 9.52430578,2.05381685 9.47916667,2.57291667 C9.43402755,2.95659914 9.38888911,3.32899125 9.34375,3.69010417 C9.34375,3.73524328 9.37196152,3.84808938 9.42838542,4.02864583 C9.48480931,4.20920229 9.47916701,4.40104065 9.41145833,4.60416667 C9.3211801,5.0104187 9.23090323,5.28124932 9.140625,5.41666667 C9.05034677,5.55208401 8.98263911,5.73263776 8.9375,5.95833333 C8.82465221,6.61285049 8.66666768,7.06987717 8.46354167,7.32942708 C8.26041565,7.58897699 8.15885417,7.85416531 8.15885417,8.125 C8.15885417,8.80208672 8.22656182,9.18576344 8.36197917,9.27604167 C8.40711828,9.32118078 8.96006414,9.53558836 10.0208333,9.91927083 C10.0659724,9.94184039 10.1223955,9.96440961 10.1901042,9.98697917 C11.9279601,10.6414963 12.8420134,11.1944422 12.9322917,11.6458333 L13,13 Z" id="login-icon"></path>
        </g>
    </g>
</svg>