<?xml version="1.0" encoding="UTF-8"?>
<svg width="36px" height="36px" viewBox="0 0 36 36" version="1.1" xmlns="http://www.w3.org/2000/svg" xmlns:xlink="http://www.w3.org/1999/xlink">
    <!-- Generator: Sketch 46.2 (44496) - http://www.bohemiancoding.com/sketch -->
    <title>Twitter icon</title>
    <desc>Created with Sketch.</desc>
    <defs></defs>
    <g id="Symbols" stroke="none" stroke-width="1" fill="none" fill-rule="evenodd">
        <g id="Twitter-icon">
            <circle id="Oval" fill="#0B7FE5" cx="18" cy="18" r="18"></circle>
            <path d="M28.4375,12.796875 C27.9687477,13.5260453 27.3437539,14.1770805 26.5625,14.75 L26.5625,15.21875 C26.5625,17.9531387 25.5794369,20.4335826 23.6132812,22.6601562 C21.6471256,24.8867299 19.0364746,26 15.78125,26 C13.6979062,26 11.7708422,25.4270891 10,24.28125 C10.4166687,24.3333336 10.7161449,24.359375 10.8984375,24.359375 C12.6432379,24.359375 14.2057223,23.8125055 15.5859375,22.71875 C14.7786418,22.6927082 14.0494824,22.4388045 13.3984375,21.9570312 C12.7473926,21.475258 12.3046887,20.8567746 12.0703125,20.1015625 C12.3828141,20.1536461 12.6171867,20.1796875 12.7734375,20.1796875 C13.0338555,20.1796875 13.3723938,20.1276047 13.7890625,20.0234375 C12.9296832,19.8411449 12.2070342,19.4049514 11.6210938,18.7148438 C11.0351533,18.0247361 10.7421875,17.2239629 10.7421875,16.3125 L10.7421875,16.2734375 C11.315107,16.5859391 11.888018,16.7421875 12.4609375,16.7421875 C11.3411402,16.0130172 10.78125,14.9583402 10.78125,13.578125 C10.78125,12.9270801 10.9505191,12.3020863 11.2890625,11.703125 C13.2942809,14.1770957 15.8854008,15.4921867 19.0625,15.6484375 C19.0104164,15.4661449 18.984375,15.1796895 18.984375,14.7890625 C18.984375,13.7213488 19.3489547,12.8229203 20.078125,12.09375 C20.8072953,11.3645797 21.7057238,11 22.7734375,11 C23.8411512,11 24.7526004,11.4036418 25.5078125,12.2109375 C26.2890664,12.0807285 27.09635,11.7682316 27.9296875,11.2734375 C27.6692695,12.1849004 27.1093793,12.8880184 26.25,13.3828125 C27.0572957,13.3046871 27.7864551,13.1093766 28.4375,12.796875 Z" id="" fill="#FFFFFF"></path>
        </g>
    </g>
</svg>